<svg width="24" height="24" viewBox="0 0 24 24" fill="none" xmlns="http://www.w3.org/2000/svg">
<path d="M2.00021 7.25H8.00021C8.41021 7.25 8.75021 6.91 8.75021 6.5C8.75021 6.09 8.41021 5.75 8.00021 5.75H2.00021C1.59021 5.75 1.25021 6.09 1.25021 6.5C1.25021 6.91 1.59021 7.25 2.00021 7.25Z" fill="black"/>
<path d="M18.0002 7.25H22.0002C22.4102 7.25 22.7502 6.91 22.7502 6.5C22.7502 6.09 22.4102 5.75 22.0002 5.75H18.0002C17.5902 5.75 17.2502 6.09 17.2502 6.5C17.2502 6.91 17.5902 7.25 18.0002 7.25Z" fill="black"/>
<path d="M14.0002 10.75C16.3402 10.75 18.2502 8.84 18.2502 6.5C18.2502 4.16 16.3402 2.25 14.0002 2.25C11.6602 2.25 9.75021 4.16 9.75021 6.5C9.75021 8.84 11.6602 10.75 14.0002 10.75ZM14.0002 3.75C15.5202 3.75 16.7502 4.98 16.7502 6.5C16.7502 8.02 15.5202 9.25 14.0002 9.25C12.4802 9.25 11.2502 8.02 11.2502 6.5C11.2502 4.98 12.4802 3.75 14.0002 3.75Z" fill="black"/>
<path d="M2.00021 18.25H6.00021C6.41021 18.25 6.75021 17.91 6.75021 17.5C6.75021 17.09 6.41021 16.75 6.00021 16.75H2.00021C1.59021 16.75 1.25021 17.09 1.25021 17.5C1.25021 17.91 1.59021 18.25 2.00021 18.25Z" fill="black"/>
<path d="M16.0002 18.25H22.0002C22.4102 18.25 22.7502 17.91 22.7502 17.5C22.7502 17.09 22.4102 16.75 22.0002 16.75H16.0002C15.5902 16.75 15.2502 17.09 15.2502 17.5C15.2502 17.91 15.5902 18.25 16.0002 18.25Z" fill="black"/>
<path d="M10.0002 21.75C12.3402 21.75 14.2502 19.84 14.2502 17.5C14.2502 15.16 12.3402 13.25 10.0002 13.25C7.66021 13.25 5.75021 15.16 5.75021 17.5C5.75021 19.84 7.66021 21.75 10.0002 21.75ZM10.0002 14.75C11.5202 14.75 12.7502 15.98 12.7502 17.5C12.7502 19.02 11.5202 20.25 10.0002 20.25C8.48021 20.25 7.25021 19.02 7.25021 17.5C7.25021 15.98 8.48021 14.75 10.0002 14.75Z" fill="black"/>
</svg>
